<mxfile host="Electron" modified="2024-02-29T12:55:41.744Z" agent="Mozilla/5.0 (Macintosh; Intel Mac OS X 10_15_7) AppleWebKit/537.36 (KHTML, like Gecko) draw.io/23.1.5 Chrome/120.0.6099.109 Electron/28.1.0 Safari/537.36" etag="Wokt_9EEt1mnjAYXnRzE" version="23.1.5" type="device">
  <diagram name="Page-1" id="Y-_C8rfKVl4bAlz_A1XX">
    <mxGraphModel dx="2277" dy="2013" grid="1" gridSize="10" guides="1" tooltips="1" connect="1" arrows="1" fold="1" page="1" pageScale="1" pageWidth="827" pageHeight="1169" math="0" shadow="0">
      <root>
        <mxCell id="0" />
        <mxCell id="1" parent="0" />
        <mxCell id="ubheXLoCfCxoMwbrXZXL-2" value="" style="rounded=1;whiteSpace=wrap;html=1;fillColor=#dae8fc;strokeColor=#6c8ebf;" vertex="1" parent="1">
          <mxGeometry x="-810" y="40" width="1560" height="970" as="geometry" />
        </mxCell>
        <mxCell id="ubheXLoCfCxoMwbrXZXL-3" value="" style="rounded=1;whiteSpace=wrap;html=1;fillColor=#d5e8d4;strokeColor=#82b366;" vertex="1" parent="1">
          <mxGeometry x="-740" y="100" width="610" height="860" as="geometry" />
        </mxCell>
        <mxCell id="ubheXLoCfCxoMwbrXZXL-4" value="" style="rounded=1;whiteSpace=wrap;html=1;fillStyle=auto;fillColor=#dae8fc;strokeColor=#6c8ebf;gradientColor=#7ea6e0;" vertex="1" parent="1">
          <mxGeometry x="-300" y="115" width="130" height="820" as="geometry" />
        </mxCell>
        <mxCell id="ubheXLoCfCxoMwbrXZXL-6" value="&lt;font style=&quot;font-size: 39px;&quot;&gt;Kart Overt Tunet&amp;nbsp;&lt;/font&gt;" style="rounded=1;whiteSpace=wrap;html=1;fillColor=#d5e8d4;strokeColor=#82b366;gradientColor=#97d077;" vertex="1" parent="1">
          <mxGeometry x="-80" y="100" width="770" height="390" as="geometry" />
        </mxCell>
        <mxCell id="ubheXLoCfCxoMwbrXZXL-7" value="" style="rounded=1;whiteSpace=wrap;html=1;fillColor=#CC0000;fontColor=#ffffff;strokeColor=#6F0000;gradientColor=#FF6666;gradientDirection=radial;" vertex="1" parent="1">
          <mxGeometry x="-80" y="570" width="770" height="390" as="geometry" />
        </mxCell>
        <mxCell id="ubheXLoCfCxoMwbrXZXL-8" value="&lt;font style=&quot;font-size: 30px;&quot;&gt;ROM 301, post 1: DO&amp;nbsp;&lt;/font&gt;" style="rounded=1;whiteSpace=wrap;html=1;fillColor=#f8cecc;strokeColor=#b85450;gradientColor=#CC0000;" vertex="1" parent="1">
          <mxGeometry x="-710" y="140" width="400" height="110" as="geometry" />
        </mxCell>
        <mxCell id="ubheXLoCfCxoMwbrXZXL-9" value="&lt;font style=&quot;font-size: 30px;&quot;&gt;ROM 312, pos2: TÃ¸rst&lt;/font&gt;" style="rounded=1;whiteSpace=wrap;html=1;fillColor=#fff2cc;gradientColor=#FF8000;strokeColor=#d6b656;" vertex="1" parent="1">
          <mxGeometry x="-710" y="280" width="400" height="110" as="geometry" />
        </mxCell>
        <mxCell id="ubheXLoCfCxoMwbrXZXL-10" value="&lt;font style=&quot;&quot;&gt;&lt;font style=&quot;font-size: 30px;&quot;&gt;ROM 312, pos2: Sulten&lt;/font&gt;&lt;br&gt;&lt;/font&gt;" style="rounded=1;whiteSpace=wrap;html=1;fillColor=#fff2cc;strokeColor=none;gradientColor=#FF8000;" vertex="1" parent="1">
          <mxGeometry x="-710" y="430" width="400" height="110" as="geometry" />
        </mxCell>
        <mxCell id="ubheXLoCfCxoMwbrXZXL-11" value="&lt;font style=&quot;font-size: 30px;&quot;&gt;ROm 320, post 3: Hjelp&lt;/font&gt;" style="rounded=1;whiteSpace=wrap;html=1;fillColor=#d5e8d4;strokeColor=#82b366;gradientColor=#009900;" vertex="1" parent="1">
          <mxGeometry x="-710" y="584" width="400" height="110" as="geometry" />
        </mxCell>
        <mxCell id="ubheXLoCfCxoMwbrXZXL-13" value="" style="rounded=1;whiteSpace=wrap;html=1;fillColor=#F19C99;" vertex="1" parent="1">
          <mxGeometry x="-70" y="650" width="750" height="300" as="geometry" />
        </mxCell>
        <mxCell id="ubheXLoCfCxoMwbrXZXL-14" value="&lt;font style=&quot;font-size: 52px;&quot;&gt;! SOS - Varsel !&lt;/font&gt;" style="text;html=1;align=center;verticalAlign=middle;whiteSpace=wrap;rounded=0;" vertex="1" parent="1">
          <mxGeometry x="-30" y="600" width="680" height="30" as="geometry" />
        </mxCell>
        <mxCell id="ubheXLoCfCxoMwbrXZXL-15" value="&lt;font color=&quot;#000000&quot; style=&quot;font-size: 53px;&quot;&gt;ROM 304&lt;/font&gt;" style="rounded=1;whiteSpace=wrap;html=1;fillColor=#e51400;strokeColor=#B20000;fontColor=#ffffff;" vertex="1" parent="1">
          <mxGeometry x="-40" y="670" width="700" height="100" as="geometry" />
        </mxCell>
        <mxCell id="ubheXLoCfCxoMwbrXZXL-16" value="&lt;font color=&quot;#000000&quot; style=&quot;font-size: 54px;&quot;&gt;ROM 306&lt;/font&gt;" style="rounded=1;whiteSpace=wrap;html=1;fillColor=#e51400;strokeColor=#B20000;fontColor=#ffffff;" vertex="1" parent="1">
          <mxGeometry x="-30" y="810" width="700" height="100" as="geometry" />
        </mxCell>
        <mxCell id="ubheXLoCfCxoMwbrXZXL-30" value="" style="labelPosition=center;verticalLabelPosition=middle;align=center;html=1;shape=mxgraph.basic.shaded_button;dx=10;fillColor=#f5f5f5;strokeColor=#666666;whiteSpace=wrap;gradientColor=#b3b3b3;" vertex="1" parent="1">
          <mxGeometry x="-285" y="780" width="100" height="110" as="geometry" />
        </mxCell>
        <mxCell id="ubheXLoCfCxoMwbrXZXL-31" value="&lt;font style=&quot;font-size: 24px;&quot;&gt;Meny&lt;/font&gt;" style="labelPosition=center;verticalLabelPosition=middle;align=center;html=1;shape=mxgraph.basic.shaded_button;dx=10;fillColor=#f5f5f5;strokeColor=#666666;whiteSpace=wrap;gradientColor=#b3b3b3;" vertex="1" parent="1">
          <mxGeometry x="-285" y="140" width="100" height="110" as="geometry" />
        </mxCell>
        <mxCell id="ubheXLoCfCxoMwbrXZXL-33" value="&lt;font style=&quot;font-size: 24px;&quot;&gt;Rediger&lt;/font&gt;" style="labelPosition=center;verticalLabelPosition=middle;align=center;html=1;shape=mxgraph.basic.shaded_button;dx=10;fillColor=#f5f5f5;strokeColor=#666666;whiteSpace=wrap;gradientColor=#b3b3b3;" vertex="1" parent="1">
          <mxGeometry x="-285" y="290" width="100" height="110" as="geometry" />
        </mxCell>
        <mxCell id="ubheXLoCfCxoMwbrXZXL-34" value="" style="html=1;verticalLabelPosition=bottom;align=center;labelBackgroundColor=#ffffff;verticalAlign=top;strokeWidth=2;strokeColor=#0080F0;shadow=0;dashed=0;shape=mxgraph.ios7.icons.trashcan;" vertex="1" parent="1">
          <mxGeometry x="-252" y="810" width="34" height="40" as="geometry" />
        </mxCell>
      </root>
    </mxGraphModel>
  </diagram>
</mxfile>
